<?xml version="1.0" encoding="UTF-8" standalone="no"?>
<!DOCTYPE svg PUBLIC "-//W3C//DTD SVG 1.1//EN"
 "http://www.w3.org/Graphics/SVG/1.1/DTD/svg11.dtd">
<!-- Generated by graphviz version 5.0.0 (20220707.1540)
 -->
<!-- Title: dependencies Pages: 1 -->
<svg width="296pt" height="174pt"
 viewBox="0.00 0.00 296.00 173.80" xmlns="http://www.w3.org/2000/svg" xmlns:xlink="http://www.w3.org/1999/xlink">
<g id="graph0" class="graph" transform="scale(1 1) rotate(0) translate(4 169.8)">
<title>dependencies</title>
<polygon fill="white" stroke="transparent" points="-4,4 -4,-169.8 292,-169.8 292,4 -4,4"/>
<text text-anchor="middle" x="144" y="-8.2" font-family="sans-serif" font-size="14.00">dependencies</text>
<g id="clust1" class="cluster">
<title>cluster_AuthModule</title>
<polygon fill="none" stroke="black" stroke-dasharray="1,5" points="8,-32.8 8,-157.8 280,-157.8 280,-32.8 8,-32.8"/>
</g>
<g id="clust3" class="cluster">
<title>cluster_AuthModule_imports</title>
<polygon fill="none" stroke="black" points="158,-40.8 158,-92.8 272,-92.8 272,-40.8 158,-40.8"/>
</g>
<g id="clust6" class="cluster">
<title>cluster_AuthModule_providers</title>
<polygon fill="none" stroke="black" points="16,-40.8 16,-92.8 150,-92.8 150,-40.8 16,-40.8"/>
</g>
<!-- PrismaModule -->
<g id="node1" class="node">
<title>PrismaModule</title>
<polygon fill="#8dd3c7" stroke="black" points="264.44,-84.8 261.44,-88.8 240.44,-88.8 237.44,-84.8 165.56,-84.8 165.56,-48.8 264.44,-48.8 264.44,-84.8"/>
<text text-anchor="middle" x="215" y="-62.6" font-family="Times,serif" font-size="14.00">PrismaModule</text>
</g>
<!-- AuthModule -->
<g id="node2" class="node">
<title>AuthModule</title>
<polygon fill="#8dd3c7" stroke="black" points="192.55,-149.8 189.55,-153.8 168.55,-153.8 165.55,-149.8 105.45,-149.8 105.45,-113.8 192.55,-113.8 192.55,-149.8"/>
<text text-anchor="middle" x="149" y="-127.6" font-family="Times,serif" font-size="14.00">AuthModule</text>
</g>
<!-- PrismaModule&#45;&gt;AuthModule -->
<g id="edge1" class="edge">
<title>PrismaModule&#45;&gt;AuthModule</title>
<path fill="none" stroke="black" d="M179.28,-84.91C179.28,-84.91 179.28,-103.79 179.28,-103.79"/>
<polygon fill="black" stroke="black" points="175.78,-103.79 179.28,-113.79 182.78,-103.79 175.78,-103.79"/>
</g>
<!-- AuthService -->
<g id="node3" class="node">
<title>AuthService</title>
<ellipse fill="#fdb462" stroke="black" cx="83" cy="-66.8" rx="59.11" ry="18"/>
<text text-anchor="middle" x="83" y="-62.6" font-family="Times,serif" font-size="14.00">AuthService</text>
</g>
<!-- AuthService&#45;&gt;AuthModule -->
<g id="edge2" class="edge">
<title>AuthService&#45;&gt;AuthModule</title>
<path fill="none" stroke="black" d="M123.77,-79.95C123.77,-79.95 123.77,-103.49 123.77,-103.49"/>
<polygon fill="black" stroke="black" points="120.27,-103.49 123.77,-113.49 127.27,-103.49 120.27,-103.49"/>
</g>
</g>
</svg>
