<?xml version="1.0" encoding="UTF-8" standalone="no"?>
<!DOCTYPE svg PUBLIC "-//W3C//DTD SVG 1.1//EN"
 "http://www.w3.org/Graphics/SVG/1.1/DTD/svg11.dtd">
<!-- Generated by graphviz version 5.0.0 (20220707.1540)
 -->
<!-- Title: dependencies Pages: 1 -->
<svg width="1023pt" height="250pt"
 viewBox="0.00 0.00 1023.00 249.80" xmlns="http://www.w3.org/2000/svg" xmlns:xlink="http://www.w3.org/1999/xlink">
<g id="graph0" class="graph" transform="scale(1 1) rotate(0) translate(4 245.8)">
<title>dependencies</title>
<polygon fill="white" stroke="transparent" points="-4,4 -4,-245.8 1019,-245.8 1019,4 -4,4"/>
<text text-anchor="middle" x="507.5" y="-8.2" font-family="sans-serif" font-size="14.00">dependencies</text>
<g id="clust1" class="cluster">
<title>cluster_AppModule</title>
<polygon fill="none" stroke="black" stroke-dasharray="1,5" points="330,-32.8 330,-233.8 709,-233.8 709,-32.8 330,-32.8"/>
</g>
<g id="clust3" class="cluster">
<title>cluster_AppModule_imports</title>
<polygon fill="none" stroke="black" points="476,-40.8 476,-168.8 689,-168.8 689,-40.8 476,-40.8"/>
</g>
<g id="clust6" class="cluster">
<title>cluster_AppModule_providers</title>
<polygon fill="none" stroke="black" points="338,-116.8 338,-168.8 468,-168.8 468,-116.8 338,-116.8"/>
</g>
<g id="clust7" class="cluster">
<title>cluster_AuthModule</title>
<polygon fill="none" stroke="black" stroke-dasharray="1,5" points="8,-32.8 8,-100.8 158,-100.8 158,-32.8 8,-32.8"/>
</g>
<g id="clust12" class="cluster">
<title>cluster_AuthModule_providers</title>
<polygon fill="none" stroke="black" points="16,-40.8 16,-92.8 150,-92.8 150,-40.8 16,-40.8"/>
</g>
<g id="clust13" class="cluster">
<title>cluster_PrismaModule</title>
<polygon fill="none" stroke="black" stroke-dasharray="1,5" points="717,-108.8 717,-176.8 1007,-176.8 1007,-108.8 717,-108.8"/>
</g>
<g id="clust16" class="cluster">
<title>cluster_PrismaModule_exports</title>
<polygon fill="none" stroke="black" points="883,-116.8 883,-168.8 999,-168.8 999,-116.8 883,-116.8"/>
</g>
<g id="clust18" class="cluster">
<title>cluster_PrismaModule_providers</title>
<polygon fill="none" stroke="black" points="725,-116.8 725,-168.8 875,-168.8 875,-116.8 725,-116.8"/>
</g>
<g id="clust19" class="cluster">
<title>cluster_UsersModule</title>
<polygon fill="none" stroke="black" stroke-dasharray="1,5" points="166,-32.8 166,-100.8 322,-100.8 322,-32.8 166,-32.8"/>
</g>
<g id="clust24" class="cluster">
<title>cluster_UsersModule_providers</title>
<polygon fill="none" stroke="black" points="174,-40.8 174,-92.8 314,-92.8 314,-40.8 174,-40.8"/>
</g>
<!-- AuthModule -->
<g id="node1" class="node">
<title>AuthModule</title>
<polygon fill="#8dd3c7" stroke="black" points="571.55,-160.8 568.55,-164.8 547.55,-164.8 544.55,-160.8 484.45,-160.8 484.45,-124.8 571.55,-124.8 571.55,-160.8"/>
<text text-anchor="middle" x="528" y="-138.6" font-family="Times,serif" font-size="14.00">AuthModule</text>
</g>
<!-- AppModule -->
<g id="node4" class="node">
<title>AppModule</title>
<polygon fill="#8dd3c7" stroke="black" points="622.66,-225.8 619.66,-229.8 598.66,-229.8 595.66,-225.8 539.34,-225.8 539.34,-189.8 622.66,-189.8 622.66,-225.8"/>
<text text-anchor="middle" x="581" y="-203.6" font-family="Times,serif" font-size="14.00">AppModule</text>
</g>
<!-- AuthModule&#45;&gt;AppModule -->
<g id="edge1" class="edge">
<title>AuthModule&#45;&gt;AppModule</title>
<path fill="none" stroke="black" d="M555.47,-160.91C555.47,-160.91 555.47,-179.79 555.47,-179.79"/>
<polygon fill="black" stroke="black" points="551.97,-179.79 555.47,-189.79 558.97,-179.79 551.97,-179.79"/>
</g>
<!-- PrismaModule -->
<g id="node2" class="node">
<title>PrismaModule</title>
<polygon fill="#8dd3c7" stroke="black" points="681.44,-84.8 678.44,-88.8 657.44,-88.8 654.44,-84.8 582.56,-84.8 582.56,-48.8 681.44,-48.8 681.44,-84.8"/>
<text text-anchor="middle" x="632" y="-62.6" font-family="Times,serif" font-size="14.00">PrismaModule</text>
</g>
<!-- PrismaModule&#45;&gt;AuthModule -->
<g id="edge5" class="edge">
<title>PrismaModule&#45;&gt;AuthModule</title>
<path fill="none" stroke="black" d="M582.59,-75.8C561.91,-75.8 542.59,-75.8 542.59,-75.8 542.59,-75.8 542.59,-114.49 542.59,-114.49"/>
<polygon fill="black" stroke="black" points="539.09,-114.49 542.59,-124.49 546.09,-114.49 539.09,-114.49"/>
</g>
<!-- UsersModule -->
<g id="node3" class="node">
<title>UsersModule</title>
<polygon fill="#8dd3c7" stroke="black" points="680.94,-160.8 677.94,-164.8 656.94,-164.8 653.94,-160.8 589.06,-160.8 589.06,-124.8 680.94,-124.8 680.94,-160.8"/>
<text text-anchor="middle" x="635" y="-138.6" font-family="Times,serif" font-size="14.00">UsersModule</text>
</g>
<!-- PrismaModule&#45;&gt;UsersModule -->
<g id="edge9" class="edge">
<title>PrismaModule&#45;&gt;UsersModule</title>
<path fill="none" stroke="black" d="M635,-84.81C635,-84.81 635,-114.65 635,-114.65"/>
<polygon fill="black" stroke="black" points="631.5,-114.65 635,-124.65 638.5,-114.65 631.5,-114.65"/>
</g>
<!-- PrismaModule&#45;&gt;AppModule -->
<g id="edge2" class="edge">
<title>PrismaModule&#45;&gt;AppModule</title>
<path fill="none" stroke="black" d="M582.58,-66.8C580.4,-66.8 579.11,-66.8 579.11,-66.8 579.11,-66.8 579.11,-179.66 579.11,-179.66"/>
<polygon fill="black" stroke="black" points="575.61,-179.66 579.11,-189.66 582.61,-179.66 575.61,-179.66"/>
</g>
<!-- PrismaService  -->
<g id="node7" class="node">
<title>PrismaService </title>
<polygon fill="#fb8072" stroke="black" points="991.37,-160.8 890.63,-160.8 890.63,-124.8 991.37,-124.8 991.37,-160.8"/>
<text text-anchor="middle" x="941" y="-138.6" font-family="Times,serif" font-size="14.00">PrismaService </text>
</g>
<!-- PrismaModule&#45;&gt;PrismaService  -->
<g id="edge7" class="edge">
<title>PrismaModule&#45;&gt;PrismaService </title>
<path fill="none" stroke="black" stroke-dasharray="5,2" d="M681.3,-60.8C768.54,-60.8 941,-60.8 941,-60.8 941,-60.8 941,-114.6 941,-114.6"/>
<polygon fill="black" stroke="black" points="937.5,-114.6 941,-124.6 944.5,-114.6 937.5,-114.6"/>
</g>
<!-- UsersModule&#45;&gt;AppModule -->
<g id="edge3" class="edge">
<title>UsersModule&#45;&gt;AppModule</title>
<path fill="none" stroke="black" d="M606.06,-160.91C606.06,-160.91 606.06,-179.79 606.06,-179.79"/>
<polygon fill="black" stroke="black" points="602.56,-179.79 606.06,-189.79 609.56,-179.79 602.56,-179.79"/>
</g>
<!-- AppService -->
<g id="node5" class="node">
<title>AppService</title>
<ellipse fill="#fdb462" stroke="black" cx="403" cy="-142.8" rx="56.75" ry="18"/>
<text text-anchor="middle" x="403" y="-138.6" font-family="Times,serif" font-size="14.00">AppService</text>
</g>
<!-- AppService&#45;&gt;AppModule -->
<g id="edge4" class="edge">
<title>AppService&#45;&gt;AppModule</title>
<path fill="none" stroke="black" d="M403,-160.91C403,-180.14 403,-207.8 403,-207.8 403,-207.8 529.27,-207.8 529.27,-207.8"/>
<polygon fill="black" stroke="black" points="529.27,-211.3 539.27,-207.8 529.27,-204.3 529.27,-211.3"/>
</g>
<!-- AuthService -->
<g id="node6" class="node">
<title>AuthService</title>
<ellipse fill="#fdb462" stroke="black" cx="83" cy="-66.8" rx="59.11" ry="18"/>
<text text-anchor="middle" x="83" y="-62.6" font-family="Times,serif" font-size="14.00">AuthService</text>
</g>
<!-- AuthService&#45;&gt;AuthModule -->
<g id="edge6" class="edge">
<title>AuthService&#45;&gt;AuthModule</title>
<path fill="none" stroke="black" d="M83,-84.91C83,-94.7 83,-104.8 83,-104.8 83,-104.8 513.41,-104.8 513.41,-104.8 513.41,-104.8 513.41,-114.69 513.41,-114.69"/>
<polygon fill="black" stroke="black" points="509.91,-114.69 513.41,-124.69 516.91,-114.69 509.91,-114.69"/>
</g>
<!-- PrismaService -->
<g id="node8" class="node">
<title>PrismaService</title>
<ellipse fill="#fdb462" stroke="black" cx="800" cy="-142.8" rx="66.64" ry="18"/>
<text text-anchor="middle" x="800" y="-138.6" font-family="Times,serif" font-size="14.00">PrismaService</text>
</g>
<!-- PrismaService&#45;&gt;PrismaModule -->
<g id="edge8" class="edge">
<title>PrismaService&#45;&gt;PrismaModule</title>
<path fill="none" stroke="black" d="M800,-124.77C800,-104.03 800,-72.8 800,-72.8 800,-72.8 691.5,-72.8 691.5,-72.8"/>
<polygon fill="black" stroke="black" points="691.5,-69.3 681.5,-72.8 691.5,-76.3 691.5,-69.3"/>
</g>
<!-- UsersService -->
<g id="node9" class="node">
<title>UsersService</title>
<ellipse fill="#fdb462" stroke="black" cx="244" cy="-66.8" rx="61.97" ry="18"/>
<text text-anchor="middle" x="244" y="-62.6" font-family="Times,serif" font-size="14.00">UsersService</text>
</g>
<!-- UsersService&#45;&gt;UsersModule -->
<g id="edge10" class="edge">
<title>UsersService&#45;&gt;UsersModule</title>
<path fill="none" stroke="black" d="M297.99,-57.8C391.91,-57.8 575.44,-57.8 575.44,-57.8 575.44,-57.8 575.44,-142.8 575.44,-142.8 575.44,-142.8 579.26,-142.8 579.26,-142.8"/>
<polygon fill="black" stroke="black" points="579.26,-146.3 589.26,-142.8 579.26,-139.3 579.26,-146.3"/>
</g>
</g>
</svg>
